<svg width="208" height="56" viewBox="0 0 208 56" fill="none" xmlns="http://www.w3.org/2000/svg">
<rect x="1" y="5" width="46" height="46" rx="23" stroke="black" stroke-width="2"/>
<path fill-rule="evenodd" clip-rule="evenodd" d="M31.3259 31.6375C31.2854 32.515 31.1398 32.9914 31.0163 33.3077C30.8534 33.7291 30.6576 34.028 30.3433 34.3433C30.0279 34.6587 29.728 34.8535 29.3076 35.0164C28.9913 35.1399 28.5139 35.2864 27.6364 35.326C26.6875 35.3694 26.403 35.379 24 35.379C21.5969 35.379 21.3114 35.3694 20.3625 35.326C19.486 35.2864 19.0096 35.1399 18.6914 35.0164C18.2719 34.8535 17.972 34.6587 17.6567 34.3433C17.3423 34.028 17.1465 33.7291 16.9836 33.3077C16.8601 32.9914 16.7136 32.515 16.674 31.6375C16.6306 30.6886 16.621 30.4041 16.621 28.001C16.621 25.5969 16.6306 25.3125 16.674 24.3636C16.7136 23.4861 16.8601 23.0097 16.9836 22.6924C17.1465 22.272 17.3423 21.973 17.6567 21.6567C17.972 21.3424 18.2719 21.1476 18.6914 20.9836C19.0096 20.8602 19.486 20.7146 20.3625 20.6741C21.3124 20.6307 21.5969 20.622 24 20.622C26.403 20.622 26.6875 20.6307 27.6364 20.6741C28.5139 20.7146 28.9913 20.8602 29.3076 20.9836C29.728 21.1476 30.0279 21.3424 30.3423 21.6567C30.6576 21.973 30.8534 22.272 31.0163 22.6924C31.1398 23.0097 31.2854 23.4861 31.3259 24.3636C31.3693 25.3125 31.3789 25.5969 31.3789 28.001C31.3789 30.4041 31.3693 30.6886 31.3259 31.6375ZM32.946 24.2893C32.9026 23.3317 32.7502 22.677 32.5275 22.1041C32.298 21.513 31.9904 21.0106 31.4899 20.5111C30.9894 20.0096 30.487 19.702 29.8959 19.4725C29.323 19.2498 28.6692 19.0974 27.7107 19.054C26.7502 19.0096 26.4446 19 24 19C21.5554 19 21.2488 19.0096 20.2893 19.054C19.3317 19.0974 18.677 19.2498 18.1051 19.4725C17.5121 19.702 17.0106 20.0096 16.5101 20.5111C16.0096 21.0106 15.702 21.513 15.4725 22.1041C15.2498 22.677 15.0974 23.3317 15.053 24.2893C15.0106 25.2498 15 25.5554 15 28.001C15 30.4446 15.0106 30.7512 15.053 31.7107C15.0974 32.6692 15.2498 33.323 15.4725 33.8959C15.702 34.4879 16.0096 34.9904 16.5101 35.4899C17.0106 35.9904 17.5121 36.298 18.1051 36.5275C18.677 36.7512 19.3317 36.9026 20.2893 36.947C21.2488 36.9904 21.5554 37.001 24 37.001C26.4446 37.001 26.7502 36.9904 27.7107 36.947C28.6692 36.9026 29.323 36.7512 29.8959 36.5275C30.487 36.298 30.9894 35.9904 31.4899 35.4899C31.9904 34.9904 32.298 34.4879 32.5275 33.8959C32.7502 33.323 32.9026 32.6692 32.946 31.7107C32.9904 30.7512 33 30.4446 33 28.001C33 25.5554 32.9904 25.2498 32.946 24.2893Z" fill="black"/>
<path fill-rule="evenodd" clip-rule="evenodd" d="M23.9999 31.0008C22.3432 31.0008 20.9999 29.6565 20.9999 28.0008C20.9999 26.3431 22.3432 24.9998 23.9999 24.9998C25.6566 24.9998 26.9999 26.3431 26.9999 28.0008C26.9999 29.6565 25.6566 31.0008 23.9999 31.0008ZM23.9999 23.3789C21.4474 23.3789 19.3789 25.4474 19.3789 28.0009C19.3789 30.5525 21.4474 32.6229 23.9999 32.6229C26.5525 32.6229 28.6219 30.5525 28.6219 28.0009C28.6219 25.4474 26.5525 23.3789 23.9999 23.3789Z" fill="black"/>
<path fill-rule="evenodd" clip-rule="evenodd" d="M30.0173 23.2949C30.0173 23.8908 29.5341 24.3749 28.9372 24.3749C28.3413 24.3749 27.8572 23.8908 27.8572 23.2949C27.8572 22.6989 28.3413 22.2148 28.9372 22.2148C29.5341 22.2148 30.0173 22.6989 30.0173 23.2949Z" fill="black"/>
<rect x="81" y="5" width="46" height="46" rx="23" stroke="black" stroke-width="2"/>
<path fill-rule="evenodd" clip-rule="evenodd" d="M102.333 34.667H104V29.5003C104 29.0395 104.373 28.667 104.833 28.667H106.7L107.071 27.3337H104.833C104.373 27.3337 104 26.9612 104 26.5003V24.2503C104 23.377 104.748 22.667 105.667 22.667H107.333V21.3337H105.667C103.828 21.3337 102.333 22.642 102.333 24.2503V26.5003C102.333 26.9612 101.961 27.3337 101.5 27.3337H99.8334V28.667H101.5C101.961 28.667 102.333 29.0395 102.333 29.5003V34.667ZM104.833 36.3337H101.5C101.039 36.3337 100.667 35.9612 100.667 35.5003V30.3337H99.0001C98.5392 30.3337 98.1667 29.9612 98.1667 29.5003V26.5003C98.1667 26.0395 98.5392 25.667 99.0001 25.667H100.667V24.2503C100.667 21.7237 102.909 19.667 105.667 19.667H108.167C108.628 19.667 109 20.0395 109 20.5003V23.5003C109 23.9603 108.628 24.3337 108.167 24.3337H105.667V25.667H108.167C108.427 25.667 108.673 25.7895 108.83 25.9962C108.988 26.2037 109.039 26.4728 108.97 26.7237L108.137 29.7228C108.037 30.0837 107.708 30.3337 107.333 30.3337H105.667V35.5003C105.667 35.9612 105.294 36.3337 104.833 36.3337Z" fill="black"/>
<mask id="mask0" style="mask-type:alpha" maskUnits="userSpaceOnUse" x="98" y="19" width="12" height="18">
<path fill-rule="evenodd" clip-rule="evenodd" d="M102.333 34.667H104V29.5003C104 29.0395 104.373 28.667 104.833 28.667H106.7L107.071 27.3337H104.833C104.373 27.3337 104 26.9612 104 26.5003V24.2503C104 23.377 104.748 22.667 105.667 22.667H107.333V21.3337H105.667C103.828 21.3337 102.333 22.642 102.333 24.2503V26.5003C102.333 26.9612 101.961 27.3337 101.5 27.3337H99.8334V28.667H101.5C101.961 28.667 102.333 29.0395 102.333 29.5003V34.667ZM104.833 36.3337H101.5C101.039 36.3337 100.667 35.9612 100.667 35.5003V30.3337H99.0001C98.5392 30.3337 98.1667 29.9612 98.1667 29.5003V26.5003C98.1667 26.0395 98.5392 25.667 99.0001 25.667H100.667V24.2503C100.667 21.7237 102.909 19.667 105.667 19.667H108.167C108.628 19.667 109 20.0395 109 20.5003V23.5003C109 23.9603 108.628 24.3337 108.167 24.3337H105.667V25.667H108.167C108.427 25.667 108.673 25.7895 108.83 25.9962C108.988 26.2037 109.039 26.4728 108.97 26.7237L108.137 29.7228C108.037 30.0837 107.708 30.3337 107.333 30.3337H105.667V35.5003C105.667 35.9612 105.294 36.3337 104.833 36.3337Z" fill="white"/>
</mask>
<g mask="url(#mask0)">
<rect x="94" y="18" width="20" height="20" fill="black"/>
</g>
<rect x="161" y="5" width="46" height="46" rx="23" stroke="black" stroke-width="2"/>
<path fill-rule="evenodd" clip-rule="evenodd" d="M190.846 23.5457V23.5473V23.5457ZM182.094 32.9982C182.114 32.9982 182.136 32.9991 182.156 33.0007C186.901 32.9699 189.734 29.3441 189.734 25.8391C189.734 25.5207 189.897 25.3149 190.042 25.1324C190.174 24.9657 190.378 24.7091 190.56 24.3391C189.899 24.3324 189.309 24.0391 188.966 23.6374C188.606 23.2532 188.091 23.0182 187.534 23.0016C186.997 22.9799 186.45 23.1866 186.043 23.5724C185.501 24.0866 185.27 24.8624 185.438 25.5957L185.656 26.5449L184.684 26.6132C182.171 26.8016 180.429 25.7257 179.233 24.6124C179.238 26.2957 179.797 28.5416 182.339 29.9899L183.137 30.4449L182.606 31.1957C182.054 31.9782 181.222 32.4774 180.376 32.7966C180.935 32.9299 181.51 32.9982 182.083 32.9982H182.093H182.094ZM182.094 34.6674C182.072 34.6674 182.049 34.6665 182.027 34.6649C180.691 34.6557 179.351 34.3449 178.148 33.7624C177.696 33.5424 177.44 33.0607 177.512 32.5607C177.586 32.0549 177.974 31.6582 178.477 31.5765C179.348 31.4332 180.071 31.1782 180.594 30.8374C177.363 28.4215 177.448 24.8049 177.657 23.2732C177.719 22.8249 178.038 22.4507 178.47 22.3199C178.908 22.1865 179.362 22.3199 179.662 22.6607C180.942 24.1115 182.221 24.8407 183.721 24.9515C183.765 23.9807 184.178 23.0449 184.896 22.3632C185.626 21.669 186.582 21.3057 187.586 21.3357C188.59 21.3665 189.521 21.7899 190.208 22.5274C190.278 22.6074 190.54 22.7524 190.856 22.6107C191.27 22.4249 191.741 22.4865 192.084 22.7732C192.426 23.0574 192.572 23.5049 192.466 23.9407C192.196 25.0499 191.665 25.7649 191.396 26.1074C191.256 30.3615 187.8 34.6674 182.094 34.6674Z" fill="#231F20"/>
<mask id="mask1" style="mask-type:alpha" maskUnits="userSpaceOnUse" x="177" y="21" width="16" height="14">
<path fill-rule="evenodd" clip-rule="evenodd" d="M190.846 23.5457V23.5473V23.5457ZM182.094 32.9982C182.114 32.9982 182.136 32.9991 182.156 33.0007C186.901 32.9699 189.734 29.3441 189.734 25.8391C189.734 25.5207 189.897 25.3149 190.042 25.1324C190.174 24.9657 190.378 24.7091 190.56 24.3391C189.899 24.3324 189.309 24.0391 188.966 23.6374C188.606 23.2532 188.091 23.0182 187.534 23.0016C186.997 22.9799 186.45 23.1866 186.043 23.5724C185.501 24.0866 185.27 24.8624 185.438 25.5957L185.656 26.5449L184.684 26.6132C182.171 26.8016 180.429 25.7257 179.233 24.6124C179.238 26.2957 179.797 28.5416 182.339 29.9899L183.137 30.4449L182.606 31.1957C182.054 31.9782 181.222 32.4774 180.376 32.7966C180.935 32.9299 181.51 32.9982 182.083 32.9982H182.093H182.094ZM182.094 34.6674C182.072 34.6674 182.049 34.6665 182.027 34.6649C180.691 34.6557 179.351 34.3449 178.148 33.7624C177.696 33.5424 177.44 33.0607 177.512 32.5607C177.586 32.0549 177.974 31.6582 178.477 31.5765C179.348 31.4332 180.071 31.1782 180.594 30.8374C177.363 28.4215 177.448 24.8049 177.657 23.2732C177.719 22.8249 178.038 22.4507 178.47 22.3199C178.908 22.1865 179.362 22.3199 179.662 22.6607C180.942 24.1115 182.221 24.8407 183.721 24.9515C183.765 23.9807 184.178 23.0449 184.896 22.3632C185.626 21.669 186.582 21.3057 187.586 21.3357C188.59 21.3665 189.521 21.7899 190.208 22.5274C190.278 22.6074 190.54 22.7524 190.856 22.6107C191.27 22.4249 191.741 22.4865 192.084 22.7732C192.426 23.0574 192.572 23.5049 192.466 23.9407C192.196 25.0499 191.665 25.7649 191.396 26.1074C191.256 30.3615 187.8 34.6674 182.094 34.6674Z" fill="white"/>
</mask>
<g mask="url(#mask1)">
<rect x="175" y="18" width="20" height="20" fill="black"/>
</g>
</svg>
